<svg xmlns="http://www.w3.org/2000/svg" xmlns:xlink="http://www.w3.org/1999/xlink" width="271" height="48" viewBox="0 0 271 48"><defs><clipPath id="a"><rect width="271" height="48" transform="translate(0 6.129)" fill="#fff" stroke="#707070" stroke-width="1"/></clipPath></defs><g transform="translate(0 -6.129)" clip-path="url(#a)"><g transform="translate(0 10.431)"><path d="M19.19,0a19.19,19.19,0,1,0,19.19,19.19A19.2,19.2,0,0,0,19.19,0Zm7.3,26.467a10.329,10.329,0,1,1,0-14.608A10.313,10.313,0,0,1,26.494,26.467Z" fill="#1138a5"/><path d="M43.066,37.965V19.637a19.215,19.215,0,0,0-8.84-16.171V30.553a8.294,8.294,0,0,0,1.159,4.231c.027.054.054.081.081.135a8.062,8.062,0,0,0,6.819,3.827h0A.782.782,0,0,0,43.066,37.965Z" transform="translate(-4.687 -0.475)" fill="#62ba9e"/><g transform="translate(47.374 2.964)"><path d="M197.38,41.45c.7-1.59,1.4-3.18,2.156-4.744a1.665,1.665,0,0,0,0-1.59q-4.609-10.43-9.191-20.915c-.108-.27-.243-.566-.377-.836-.27-.512-.216-.755.458-.755,2.264.027,4.5.027,6.765,0a1.091,1.091,0,0,1,1.186.809q2.507,6.428,5.067,12.856c.108.3.27.593.458,1.024,1.725-4.663,3.4-9.164,5.013-13.691a1.248,1.248,0,0,1,1.428-1.024c2.156.081,4.312.054,6.468,0,.755-.027.755.189.485.782l-8.086,19-3.638,8.571a2.564,2.564,0,0,0-.108.485C202.744,41.45,200.076,41.45,197.38,41.45Z" transform="translate(-73.368 -4.687)" fill="#1c44b2"/><path d="M94.9,15.294a9.084,9.084,0,0,1,7.088-4.151,8.746,8.746,0,0,1,9.837,7.816,20.768,20.768,0,0,1,.216,2.884c0,4.258-.027,8.49.027,12.748,0,.862-.243,1.051-1.078,1.024q-2.83-.081-5.66,0c-.7.027-.836-.216-.809-.862q.04-6.064,0-12.128a6.123,6.123,0,0,0-.647-3.1,4.755,4.755,0,0,0-5.2-2.183,4.51,4.51,0,0,0-3.558,3.665,11.986,11.986,0,0,0-.216,2.587c0,3.665-.027,7.358.027,11.023,0,.809-.243,1-1,.97-1.914-.054-3.827-.027-5.741,0-.566,0-.755-.135-.755-.728.027-10.242.027-20.456,0-30.7,0-.485.081-.728.647-.728,2.048.027,4.1.054,6.145,0,.782-.027.674.431.674.889Z" transform="translate(-59.349 -3.434)" fill="#1c44b2"/><path d="M73.414,13.713c-1.078,0-2.156-.027-3.234,0-.62.027-.862-.162-1.024-.782a3.359,3.359,0,0,0-4.231-2.426,2.41,2.41,0,0,0-1.941,1.941A2.8,2.8,0,0,0,64.008,15.3a15.141,15.141,0,0,0,4.555,2.075c1.321.485,2.641.97,3.935,1.536A8.383,8.383,0,0,1,78,27.4a8.5,8.5,0,0,1-6.2,7.924,15.062,15.062,0,0,1-12.182-1.186A8.858,8.858,0,0,1,55.06,27.3c-.081-.647.027-.889.755-.862,2.129.054,4.231.027,6.361,0a.8.8,0,0,1,.943.728,3.685,3.685,0,0,0,4.339,2.965A2.527,2.527,0,0,0,69.8,28.375a2.794,2.794,0,0,0-.674-3.046,8.858,8.858,0,0,0-3.234-1.779c-1.887-.7-3.8-1.321-5.633-2.129-3.638-1.617-5.5-4.366-5.363-8.355.108-3.612,2.183-6.441,6.037-7.681,4.42-1.428,8.84-1.294,12.829,1.455A8.777,8.777,0,0,1,77.4,13.066c.081.512-.081.647-.539.647C75.7,13.686,74.573,13.713,73.414,13.713Z" transform="translate(-54.891 -3.578)" fill="#1c44b2"/><path d="M277.508,35.6c-2.749,0-5.471-.027-8.193.027-.647,0-.862-.4-1.159-.809-2.1-2.938-4.178-5.9-6.28-8.84a4.2,4.2,0,0,0-.4-.431v9.244c0,.458.027.836-.647.836-2.048-.027-4.1-.027-6.172,0-.862.027-.647-.566-.647-1.024V10.828c0-2.129.027-4.285-.027-6.415,0-.674.162-.943.889-.916q2.83.081,5.66,0c.755-.027.97.189.97.943-.027,5.121-.027,10.242-.027,15.336v1.24c1.4-1.833,2.641-3.477,3.881-5.121,1-1.321,1.967-2.614,2.965-3.935.189-.27.377-.566.782-.566h8.463c-1.321,1.644-2.507,3.126-3.692,4.582-1.86,2.318-3.719,4.663-5.633,6.954a.735.735,0,0,0,0,1.159c2.965,3.5,5.875,7.061,8.813,10.592C277.212,34.923,277.589,35.112,277.508,35.6Z" transform="translate(-82.155 -3.442)" fill="#62ba9e"/><path d="M225.776,20.507c0-4.77.027-9.568-.027-14.338,0-.836.243-1.078,1.078-1.078,5.741.027,11.508.027,17.249,0,.809,0,1.024.243,1,1.024-.054,1.375-.054,2.749,0,4.1.027.728-.243.889-.916.889-3.288-.027-6.6,0-9.891-.027-.755,0-1.078.135-1.051.97.081,1.455.054,2.938,0,4.42-.027.782.243.943,1,.943,2.857-.027,5.714,0,8.571-.027.7,0,.943.189.916.889-.054,1.348-.054,2.668,0,4.016.027.7-.243.836-.862.836-2.857-.027-5.714.027-8.571-.027-.782,0-1.051.189-1.024,1,.054,1.59.054,3.207,0,4.824-.027.7.189.916.916.916,3.342-.027,6.657,0,10-.027.755,0,1,.216.97.97-.054,1.428-.027,2.884,0,4.312,0,.539-.135.755-.728.755q-8.935-.04-17.869,0c-.835,0-.728-.485-.728-.97C225.776,30.074,225.776,25.3,225.776,20.507Z" transform="translate(-78.289 -3.661)" fill="#62ba9e"/><path d="M165.114,16.6c.4-.162.458-.485.647-.7,2.237-3.019,5.336-3.908,8.921-3.423,3.638.485,5.9,2.668,7.007,6.091a14.163,14.163,0,0,1,.62,4.258c0,4.366-.027,8.759.027,13.126,0,.7-.162.916-.889.889q-2.83-.081-5.66,0c-.782.027-1.024-.162-1-.97.054-4.07.027-8.166.027-12.236,0-2.56-1.186-4.447-3.288-4.932-3.423-.809-6.2.889-6.307,4.824-.135,4.1-.054,8.22-.027,12.317,0,.809-.243,1-1,.97-1.914-.054-3.827-.027-5.741,0-.566,0-.755-.135-.755-.728.027-7.573.027-15.174,0-22.747,0-.566.189-.755.755-.755q3.032.04,6.064,0c.512,0,.7.162.7.674A27.526,27.526,0,0,0,165.114,16.6Z" transform="translate(-68.971 -4.654)" fill="#1c44b2"/><path d="M139.205,32.951c-2.4,3.45-5.66,4.528-9.568,4.016-4.1-.539-7.088-3.935-7.385-8.436-.27-4.231-.081-8.49-.081-12.721,0-1.024-.458-2.345.216-2.992.62-.593,1.914-.135,2.938-.162,1.051-.027,2.1.054,3.126-.027.889-.054,1.213.189,1.186,1.132-.054,3.773-.027,7.546-.027,11.347a8.8,8.8,0,0,0,.323,2.776,4.166,4.166,0,0,0,4.258,3.046c2.372.027,3.989-.97,4.636-2.938a8.116,8.116,0,0,0,.4-2.668c0-3.908.027-7.816-.027-11.724,0-.755.189-.97.943-.943,1.941.054,3.908.027,5.849,0,.566,0,.755.162.755.728-.027,7.6-.027,15.174,0,22.774,0,.593-.216.728-.755.7-2.021-.027-4.043-.054-6.064,0-.674.027-.782-.243-.755-.809C139.232,35,139.205,33.975,139.205,32.951Z" transform="translate(-64.084 -4.677)" fill="#1c44b2"/><path d="M309.883,27.314c0-4.582-.027-9.164.027-13.745,0-.809-.243-1.024-1.024-1-1.887.054-3.773.027-5.66,0-.62,0-.836.189-.836.809.027.97,0,1.967,0,3.18a12.877,12.877,0,0,0-2.075-2.453,9.983,9.983,0,0,0-12.371.7,12.069,12.069,0,0,0-3.692,7.816c-.4,3.962.135,7.735,2.722,11a9.9,9.9,0,0,0,13.26,1.725,15.211,15.211,0,0,0,2.156-2.453c0,1.159.054,2.048-.027,2.938-.081.836.27,1,1.024.97,1.806-.054,3.638-.054,5.444,0,.782.027,1.051-.162,1.024-.97C309.856,33,309.883,30.144,309.883,27.314Zm-8.49,1.105a5.275,5.275,0,0,1-5.795,1.967,5.087,5.087,0,0,1-3.719-4.609c-.027-.377,0-.728,0-1.105-.027-2.938,1.186-4.851,3.477-5.579a5.256,5.256,0,0,1,7.034,4.824A6.474,6.474,0,0,1,301.393,28.419Z" transform="translate(-86.284 -4.646)" fill="#62ba9e"/></g></g></g></svg>