<svg xmlns="http://www.w3.org/2000/svg" xmlns:xlink="http://www.w3.org/1999/xlink" width="314" height="56" viewBox="0 0 314 56"><defs><clipPath id="a"><rect width="314" height="56" transform="translate(0 6.129)" fill="#fff" stroke="#707070" stroke-width="1"/></clipPath></defs><g transform="translate(0 -6.129)" clip-path="url(#a)"><g transform="translate(0 11.114)"><path d="M22.235,0A22.235,22.235,0,1,0,44.469,22.235,22.244,22.244,0,0,0,22.235,0ZM30.7,30.666a11.968,11.968,0,1,1,0-16.926A11.95,11.95,0,0,1,30.7,30.666Z" fill="#1138a5"/><path d="M44.469,43.438V22.2A22.264,22.264,0,0,0,34.226,3.466V34.851a9.61,9.61,0,0,0,1.343,4.9c.031.062.062.094.094.156a9.341,9.341,0,0,0,7.9,4.434h0A.906.906,0,0,0,44.469,43.438Z" fill="#62ba9e"/><path d="M198.58,46.03c.812-1.842,1.624-3.685,2.5-5.5a1.929,1.929,0,0,0,0-1.842q-5.34-12.085-10.649-24.233c-.125-.312-.281-.656-.437-.968-.312-.593-.25-.874.531-.874,2.623.031,5.215.031,7.838,0a1.265,1.265,0,0,1,1.374.937q2.9,7.448,5.871,14.9c.125.344.312.687.531,1.187,2-5.4,3.935-10.618,5.808-15.864a1.446,1.446,0,0,1,1.655-1.187c2.5.094,5,.062,7.495,0,.874-.031.874.219.562.906L212.29,35.507l-4.216,9.931a2.97,2.97,0,0,0-.125.562C204.795,46.03,201.7,46.03,198.58,46.03Z" fill="#1c44b2"/><path d="M96.089,17.176a10.526,10.526,0,0,1,8.213-4.809c6-.5,10.524,3.123,11.4,9.056a24.064,24.064,0,0,1,.25,3.341c0,4.934-.031,9.837.031,14.771,0,1-.281,1.218-1.249,1.187q-3.279-.094-6.558,0c-.812.031-.968-.25-.937-1q.047-7.026,0-14.053a7.094,7.094,0,0,0-.749-3.591,5.51,5.51,0,0,0-6.027-2.529A5.226,5.226,0,0,0,96.339,23.8a13.888,13.888,0,0,0-.25,3c0,4.247-.031,8.525.031,12.772,0,.937-.281,1.155-1.155,1.124-2.217-.062-4.434-.031-6.652,0-.656,0-.874-.156-.874-.843.031-11.867.031-23.7,0-35.569,0-.562.094-.843.749-.843,2.373.031,4.747.062,7.12,0,.906-.031.781.5.781,1.031Z" fill="#1c44b2"/><path d="M76.353,15.177c-1.249,0-2.5-.031-3.747,0-.718.031-1-.187-1.187-.906a3.891,3.891,0,0,0-4.9-2.811,2.792,2.792,0,0,0-2.248,2.248,3.241,3.241,0,0,0,1.187,3.31,17.543,17.543,0,0,0,5.278,2.4c1.53.562,3.06,1.124,4.559,1.78,4.31,1.842,6.589,5.34,6.371,9.837a9.846,9.846,0,0,1-7.182,9.181,17.452,17.452,0,0,1-14.115-1.374,10.263,10.263,0,0,1-5.278-7.932c-.094-.749.031-1.031.874-1,2.467.062,4.9.031,7.37,0a.929.929,0,0,1,1.093.843,4.269,4.269,0,0,0,5.028,3.435,2.928,2.928,0,0,0,2.717-2.03,3.237,3.237,0,0,0-.781-3.529,10.264,10.264,0,0,0-3.747-2.061c-2.186-.812-4.4-1.53-6.527-2.467-4.216-1.874-6.371-5.059-6.214-9.681.125-4.185,2.529-7.464,7-8.9,5.121-1.655,10.243-1.5,14.865,1.686a10.169,10.169,0,0,1,4.216,7.214c.094.593-.094.749-.625.749C79.007,15.146,77.7,15.177,76.353,15.177Z" fill="#1c44b2"/><path d="M281.242,40.69c-3.185,0-6.339-.031-9.493.031-.749,0-1-.468-1.343-.937-2.436-3.4-4.84-6.839-7.276-10.243a4.87,4.87,0,0,0-.468-.5V39.754c0,.531.031.968-.75.968-2.373-.031-4.747-.031-7.151,0-1,.031-.749-.656-.749-1.187V11.992c0-2.467.031-4.965-.031-7.432,0-.781.187-1.093,1.031-1.062q3.279.094,6.558,0c.874-.031,1.124.219,1.124,1.093-.031,5.933-.031,11.867-.031,17.769V23.8c1.624-2.124,3.06-4.028,4.5-5.933,1.155-1.53,2.28-3.029,3.435-4.559.219-.312.437-.656.906-.656H281.3c-1.53,1.9-2.9,3.622-4.278,5.309-2.155,2.686-4.31,5.4-6.527,8.057a.851.851,0,0,0,0,1.343c3.435,4.06,6.808,8.182,10.212,12.273C280.9,39.91,281.335,40.128,281.242,40.69Z" fill="#62ba9e"/><path d="M225.78,22.953c0-5.527.031-11.086-.031-16.613,0-.968.281-1.249,1.249-1.249,6.652.031,13.334.031,19.986,0,.937,0,1.187.281,1.155,1.187-.062,1.593-.062,3.185,0,4.747.031.843-.281,1.031-1.062,1.031-3.81-.031-7.651,0-11.461-.031-.874,0-1.249.156-1.218,1.124.094,1.686.062,3.4,0,5.121-.031.906.281,1.093,1.155,1.093,3.31-.031,6.62,0,9.931-.031.812,0,1.093.219,1.062,1.031-.062,1.561-.062,3.092,0,4.653.031.812-.281.968-1,.968-3.31-.031-6.62.031-9.931-.031-.906,0-1.218.219-1.187,1.155.062,1.842.062,3.716,0,5.59-.031.812.219,1.062,1.062,1.062,3.872-.031,7.713,0,11.586-.031.874,0,1.155.25,1.124,1.124-.062,1.655-.031,3.341,0,5,0,.625-.156.874-.843.874q-10.352-.047-20.7,0c-.968,0-.843-.562-.843-1.124C225.78,34.039,225.78,28.511,225.78,22.953Z" fill="#62ba9e"/><path d="M166.29,17.269c.468-.187.531-.562.749-.812,2.592-3.5,6.183-4.528,10.337-3.966,4.216.562,6.839,3.092,8.119,7.058a16.41,16.41,0,0,1,.718,4.934c0,5.059-.031,10.149.031,15.208,0,.812-.187,1.062-1.031,1.031q-3.279-.094-6.558,0c-.906.031-1.187-.187-1.155-1.124.062-4.715.031-9.462.031-14.178,0-2.967-1.374-5.153-3.81-5.715-3.966-.937-7.182,1.031-7.307,5.59-.156,4.747-.062,9.525-.031,14.271,0,.937-.281,1.155-1.155,1.124-2.217-.062-4.434-.031-6.652,0-.656,0-.874-.156-.874-.843.031-8.775.031-17.582,0-26.357,0-.656.219-.874.874-.874q3.513.047,7.026,0c.593,0,.812.187.812.781A31.893,31.893,0,0,0,166.29,17.269Z" fill="#1c44b2"/><path d="M141.932,36.194c-2.779,4-6.558,5.246-11.086,4.653-4.747-.625-8.213-4.559-8.557-9.774-.312-4.9-.094-9.837-.094-14.74,0-1.187-.531-2.717.25-3.466.718-.687,2.217-.156,3.4-.187,1.218-.031,2.436.062,3.622-.031,1.031-.062,1.405.219,1.374,1.312-.062,4.372-.031,8.744-.031,13.147a10.2,10.2,0,0,0,.375,3.217,4.827,4.827,0,0,0,4.934,3.529c2.748.031,4.622-1.124,5.371-3.4a9.4,9.4,0,0,0,.468-3.092c0-4.528.031-9.056-.031-13.584,0-.874.219-1.124,1.093-1.093,2.248.062,4.528.031,6.777,0,.656,0,.874.187.874.843-.031,8.806-.031,17.582,0,26.388,0,.687-.25.843-.874.812-2.342-.031-4.684-.062-7.026,0-.781.031-.906-.281-.874-.937C141.964,38.567,141.932,37.38,141.932,36.194Z" fill="#1c44b2"/><path d="M313.969,29.7c0-5.309-.031-10.618.031-15.926,0-.937-.281-1.187-1.187-1.155-2.186.062-4.372.031-6.558,0-.718,0-.968.219-.968.937.031,1.124,0,2.28,0,3.685a14.919,14.919,0,0,0-2.4-2.842,11.567,11.567,0,0,0-14.334.812,13.985,13.985,0,0,0-4.278,9.056c-.468,4.591.156,8.963,3.154,12.741a11.475,11.475,0,0,0,15.364,2,17.624,17.624,0,0,0,2.5-2.842c0,1.343.062,2.373-.031,3.4-.094.968.312,1.155,1.187,1.124,2.092-.062,4.216-.062,6.308,0,.906.031,1.218-.187,1.187-1.124C313.938,36.287,313.969,32.977,313.969,29.7Zm-9.837,1.28a6.112,6.112,0,0,1-6.714,2.28,5.894,5.894,0,0,1-4.31-5.34c-.031-.437,0-.843,0-1.28-.031-3.4,1.374-5.621,4.028-6.464a6.09,6.09,0,0,1,8.151,5.59A7.5,7.5,0,0,1,304.132,30.978Z" fill="#62ba9e"/></g></g></svg>